<svg viewBox="0 0 16 16" xmlns="http://www.w3.org/2000/svg" xmlns:xlink="http://www.w3.org/1999/xlink" width="16.000000" height="16.000000" fill="none" customFrame="#000000">
	<rect id="book-open" width="16.000000" height="16.000000" x="0.000000" y="0.000000" />
	<path id="矢量 205" d="M8 4.66669L8 14" stroke="rgb(78,205,196)" stroke-linecap="round" stroke-linejoin="round" stroke-width="1.333333" />
	<path id="矢量 206" d="M1.66659 11.9107C1.56524 11.8522 1.48108 11.768 1.42257 11.6667C1.36406 11.5653 1.33325 11.4504 1.33325 11.3333L1.33325 2.66667C1.33325 2.54964 1.36406 2.43468 1.42257 2.33333C1.48108 2.23199 1.56524 2.14783 1.66659 2.08932C1.76793 2.0308 1.88289 2 1.99992 2L5.33325 2C5.80135 2 6.2612 2.12322 6.66659 2.35727C7.07197 2.59131 7.4086 2.92795 7.64265 3.33333C7.8767 3.73872 7.99992 4.19857 7.99992 4.66667C7.99992 4.19857 8.12314 3.73872 8.35719 3.33333C8.59123 2.92795 8.92787 2.59131 9.33325 2.35727C9.73864 2.12322 10.1985 2 10.6666 2L13.9999 2C14.1169 2 14.2319 2.0308 14.3333 2.08932C14.4346 2.14783 14.5188 2.23199 14.5773 2.33333C14.6358 2.43468 14.6666 2.54964 14.6666 2.66667L14.6666 11.3333C14.6666 11.4504 14.6358 11.5653 14.5773 11.6667C14.5188 11.768 14.4346 11.8522 14.3333 11.9107C14.2319 11.9692 14.1169 12 13.9999 12L9.99992 12C9.64885 12 9.30396 12.0924 8.99992 12.268C8.69588 12.4435 8.44341 12.696 8.26787 13C8.09233 13.304 7.99992 13.6489 7.99992 14C7.99992 13.6489 7.90751 13.304 7.73197 13C7.55643 12.696 7.30396 12.4435 6.99992 12.268C6.69588 12.0924 6.35099 12 5.99992 12L1.99992 12C1.88289 12 1.76793 11.9692 1.66659 11.9107Z" fill-rule="nonzero" stroke="rgb(78,205,196)" stroke-linecap="round" stroke-linejoin="round" stroke-width="1.333333" />
</svg>
