<svg viewBox="0 0 14 14" xmlns="http://www.w3.org/2000/svg" xmlns:xlink="http://www.w3.org/1999/xlink" width="14.000000" height="14.000000" fill="none" customFrame="#000000">
	<rect id="flame" width="14.000000" height="14.000000" x="0.000000" y="0.000000" />
	<path id="矢量 68" d="M9.33335 5.54167C10.5 6.51389 11.0834 7.58333 11.0834 8.75C11.0834 9.61232 10.8104 10.4525 10.3035 11.1501C9.79665 11.8478 9.08195 12.367 8.26184 12.6335C7.44173 12.9 6.55831 12.9 5.7382 12.6335C4.91809 12.367 4.20339 11.8477 3.69653 11.1501C3.18968 10.4525 2.91669 9.61232 2.91669 8.75C2.91669 8.43651 2.96723 8.12507 3.06636 7.82767C3.16549 7.53027 3.31193 7.25079 3.50002 7C3.50002 7.30797 3.59752 7.60803 3.77854 7.85719C3.95956 8.10634 4.21481 8.29179 4.5077 8.38696C4.8006 8.48213 5.11611 8.48213 5.409 8.38696C5.7019 8.29179 5.95715 8.10634 6.13817 7.85719C6.31919 7.60803 6.41669 7.30797 6.41669 7C6.41669 5.83333 5.54169 5.25 5.54169 4.08333C5.54169 3.30556 6.0278 2.52778 7.00002 1.75C7.38891 3.30556 8.16669 4.56944 9.33335 5.54167Z" fill-rule="nonzero" stroke="rgb(245,197,24)" stroke-linecap="round" stroke-linejoin="round" stroke-width="1.166667" />
</svg>
