<svg viewBox="0 0 12 12" xmlns="http://www.w3.org/2000/svg" xmlns:xlink="http://www.w3.org/1999/xlink" width="12.000000" height="12.000000" fill="none" customFrame="#000000">
	<rect id="sparkles" width="12.000000" height="12.000000" x="0.000000" y="0.000000" />
	<path id="矢量 15" d="M5.63044 1.16196C5.69309 1.09323 5.77368 1.04333 5.86313 1.01787C5.95259 0.992416 6.04737 0.992416 6.13682 1.01787C6.22628 1.04333 6.30686 1.09323 6.36951 1.16196C6.43216 1.2307 6.4744 1.31555 6.49148 1.40698L7.01698 4.18598C7.0543 4.38355 7.15031 4.56528 7.29249 4.70746C7.43467 4.84964 7.6164 4.94565 7.81398 4.98298L10.593 5.50848C10.6844 5.52555 10.7692 5.56779 10.838 5.63044C10.9067 5.69309 10.9566 5.77368 10.9821 5.86313C11.0075 5.95258 11.0075 6.04737 10.9821 6.13682C10.9566 6.22628 10.9067 6.30686 10.838 6.36951C10.7692 6.43216 10.6844 6.4744 10.593 6.49148L7.81398 7.01698C7.6164 7.0543 7.43467 7.15031 7.29249 7.29249C7.15031 7.43467 7.0543 7.6164 7.01698 7.81398L6.49148 10.593C6.4744 10.6844 6.43216 10.7692 6.36951 10.838C6.30686 10.9067 6.22628 10.9566 6.13682 10.9821C6.04737 11.0075 5.95258 11.0075 5.86313 10.9821C5.77368 10.9566 5.69309 10.9067 5.63044 10.838C5.56779 10.7692 5.52555 10.6844 5.50848 10.593L4.98298 7.81398C4.94565 7.6164 4.84964 7.43467 4.70746 7.29249C4.56528 7.15031 4.38355 7.0543 4.18598 7.01698L1.40698 6.49148C1.31555 6.4744 1.2307 6.43216 1.16196 6.36951C1.09323 6.30686 1.04333 6.22628 1.01787 6.13682C0.992416 6.04737 0.992416 5.95258 1.01787 5.86313C1.04333 5.77368 1.09323 5.69309 1.16196 5.63044C1.2307 5.56779 1.31555 5.52555 1.40698 5.50848L4.18598 4.98298C4.38355 4.94565 4.56528 4.84964 4.70746 4.70746C4.84964 4.56528 4.94565 4.38355 4.98298 4.18598L5.50848 1.40698C5.52555 1.31555 5.56779 1.2307 5.63044 1.16196Z" fill-rule="nonzero" stroke="rgb(108,92,231)" stroke-linecap="round" stroke-linejoin="round" stroke-width="1.000000" />
	<path id="矢量 16" d="M10 1L10 3" stroke="rgb(108,92,231)" stroke-linecap="round" stroke-linejoin="round" stroke-width="1.000000" />
	<path id="矢量 17" d="M11 2L9 2" stroke="rgb(108,92,231)" stroke-linecap="round" stroke-linejoin="round" stroke-width="1.000000" />
	<circle id="椭圆 3" cx="2" cy="10" r="1" stroke="rgb(108,92,231)" stroke-linecap="round" stroke-linejoin="round" stroke-width="1.000000" />
</svg>
